# xmcd
#
# Track frame offsets: 
#        150
#        15938
#        35513
#        54629
#        74233
#        91080
#        110534
#        127381
#        145156
#        162735
#
# Disc length: 2396 seconds
#
# Revision: 0
# Processed by: cddbd v1.5.2PL0 Copyright (c) Steve Scherf et al.
# Submitted via: ExactAudioCopyFreeDBPlugin 1.0
#
DISCID=93095a0a
DTITLE=รัชนก ศรีโลพันธุ์ - ชุดที่ 2 ฝนตกในทะเล
DYEAR=2011
DGENRE=Pop
TTITLE0=รักต้องแสดงออก
TTITLE1=คำว่าไม่ว่างคือข้ออ้างของคำว่าไม่รัก
TTITLE2=ฝนตกในทะเล
TTITLE3=อยากมานั่งคุยกันหน่อยไหม
TTITLE4=คิดถึงไม่เต็มปาก รักไม่เต็มใจ
TTITLE5=อยากจบแต่กลัวเจ็บ
TTITLE6=ขอแค่แลดู
TTITLE7=เจ็บนี้ไม่โทษเธอหรอก
TTITLE8=เรารักกันหรือฉันรักเธอ
TTITLE9=ขนมลาคนลืม
EXTD=
EXTT0=
EXTT1=
EXTT2=
EXTT3=
EXTT4=
EXTT5=
EXTT6=
EXTT7=
EXTT8=
EXTT9=
PLAYORDER=
